<?xml version="1.0" standalone="no"?>
<!DOCTYPE svg PUBLIC "-//W3C//DTD SVG 20010904//EN"
 "http://www.w3.org/TR/2001/REC-SVG-20010904/DTD/svg10.dtd">
<svg version="1.0" xmlns="http://www.w3.org/2000/svg"
 width="300.000000pt" height="300.000000pt" viewBox="0 0 300.000000 300.000000"
 preserveAspectRatio="xMidYMid meet">
<metadata>
Created by potrace 1.11, written by Peter Selinger 2001-2013
</metadata>
<g transform="translate(0.000000,300.000000) scale(0.100000,-0.100000)"
fill="#000000" stroke="none">
<path d="M1058 2915 c-2 -2 -23 -5 -48 -8 -87 -10 -216 -63 -309 -126 -76 -52
-181 -139 -187 -156 -3 -7 18 -35 47 -62 l53 -50 55 45 c61 50 153 96 218 110
126 28 269 -12 346 -98 37 -41 112 -164 106 -172 -1 -2 6 -21 15 -43 23 -51
31 -72 46 -115 7 -19 16 -44 20 -55 9 -21 30 -88 34 -108 2 -7 6 -19 9 -27 20
-55 23 -77 14 -97 -6 -13 -14 -23 -19 -23 -4 0 -8 -4 -8 -9 0 -9 -71 -135
-188 -333 -23 -40 -48 -85 -54 -100 -7 -16 -16 -28 -20 -28 -4 0 -8 -4 -8 -9
0 -9 -143 -259 -160 -278 -5 -7 -10 -14 -10 -17 0 -3 -31 -59 -70 -125 -39
-66 -70 -125 -70 -131 0 -5 -4 -10 -8 -10 -4 0 -21 -27 -37 -60 -17 -33 -33
-60 -37 -60 -5 0 -8 -4 -8 -10 0 -20 -227 -371 -260 -400 -3 -3 -17 -21 -32
-40 -15 -19 -40 -51 -57 -70 -26 -29 -31 -42 -28 -80 l2 -45 225 -3 226 -2 89
177 c134 267 387 752 441 846 19 32 34 62 34 68 0 5 5 9 10 9 6 0 9 3 8 8 -2
4 26 59 61 122 35 63 71 127 78 143 19 36 29 28 38 -30 5 -27 10 -55 12 -63 2
-8 5 -26 8 -40 2 -14 14 -68 25 -120 11 -52 23 -108 26 -125 2 -16 7 -37 9
-45 2 -8 7 -28 10 -45 6 -35 8 -45 33 -147 11 -43 17 -80 14 -83 -3 -3 0 -5 7
-5 7 0 10 -4 7 -9 -3 -4 -1 -23 5 -42 5 -19 12 -49 15 -68 2 -19 8 -39 11 -45
4 -6 8 -15 9 -21 3 -20 46 -169 56 -194 6 -14 14 -35 18 -46 62 -177 194 -275
371 -276 88 0 174 23 278 76 118 61 126 68 110 97 -6 13 -15 25 -18 28 -4 3
-17 19 -29 36 l-21 31 -59 -29 c-113 -56 -223 -34 -296 58 -23 30 -107 178
-105 187 0 1 -2 9 -5 17 -45 136 -58 179 -62 199 -3 13 -9 32 -15 43 -5 10 -8
18 -5 18 2 0 -2 21 -10 48 -20 65 -96 380 -139 577 -2 11 -7 34 -10 50 -3 17
-8 37 -11 45 -3 8 -7 26 -9 40 -2 14 -11 57 -20 95 -9 39 -18 79 -21 90 -10
49 -21 99 -40 178 -2 9 -6 27 -9 40 -3 12 -12 51 -21 87 -9 36 -18 72 -19 80
-2 8 -4 15 -5 15 -1 0 -4 11 -7 25 -7 38 -11 55 -13 58 -2 1 -3 5 -4 10 -36
137 -77 253 -119 337 -22 44 -43 82 -48 83 -5 2 -9 9 -9 15 0 7 -14 27 -30 44
-86 95 -193 141 -338 147 -45 2 -83 2 -84 1z"/>
</g>
</svg>
