<?xml version="1.0" standalone="no"?>
<!DOCTYPE svg PUBLIC "-//W3C//DTD SVG 20010904//EN"
 "http://www.w3.org/TR/2001/REC-SVG-20010904/DTD/svg10.dtd">
<svg version="1.0" xmlns="http://www.w3.org/2000/svg"
 width="300.000000pt" height="300.000000pt" viewBox="0 0 300.000000 300.000000"
 preserveAspectRatio="xMidYMid meet">
<metadata>
Created by potrace 1.11, written by Peter Selinger 2001-2013
</metadata>
<g transform="translate(0.000000,300.000000) scale(0.100000,-0.100000)"
fill="#000000" stroke="none">
<path d="M1109 2899 c-46 -9 -111 -29 -144 -44 -77 -34 -205 -120 -275 -183
l-55 -50 50 -51 c27 -28 53 -51 58 -51 5 0 28 16 50 36 57 48 170 103 237 113
131 21 237 -7 314 -85 59 -59 80 -84 69 -84 -4 0 -3 -4 4 -8 23 -14 88 -173
158 -384 40 -123 41 -129 26 -160 -8 -18 -18 -35 -21 -38 -5 -5 -24 -38 -57
-100 -10 -19 -21 -37 -24 -40 -5 -4 -32 -51 -88 -155 -9 -16 -19 -32 -22 -35
-3 -3 -16 -25 -30 -50 -13 -25 -27 -46 -31 -48 -5 -2 -8 -8 -8 -13 0 -6 -47
-90 -104 -187 -57 -97 -111 -193 -121 -212 -10 -19 -21 -37 -25 -40 -7 -5 -42
-66 -106 -185 -14 -27 -30 -51 -35 -53 -5 -2 -9 -7 -9 -12 0 -8 -78 -147 -93
-165 -4 -5 -26 -39 -49 -75 -23 -36 -45 -69 -50 -75 -4 -5 -40 -53 -80 -105
-40 -52 -82 -106 -94 -119 -16 -17 -22 -37 -22 -72 l-1 -49 227 0 228 0 83
167 c47 93 83 170 82 172 -2 2 1 7 6 10 4 3 17 24 28 46 11 22 26 48 34 58 8
9 11 17 6 17 -4 0 -3 6 2 13 6 6 45 80 88 162 43 83 98 185 122 229 23 43 43
82 43 87 0 4 6 14 13 21 6 8 25 40 42 73 16 33 33 63 38 66 5 3 9 10 8 15 0 5
16 37 35 71 18 34 34 66 34 72 0 6 3 11 8 11 4 0 20 25 36 55 16 30 32 55 37
55 5 0 8 -3 7 -7 -1 -5 2 -24 6 -43 4 -19 8 -46 10 -60 2 -14 6 -32 9 -40 3
-8 13 -53 22 -100 9 -47 18 -94 21 -105 11 -52 17 -81 18 -97 0 -10 3 -18 6
-18 3 0 6 -8 7 -17 2 -27 10 -68 44 -208 5 -22 12 -50 14 -63 2 -13 7 -32 10
-42 3 -10 8 -27 10 -37 11 -51 49 -185 66 -233 11 -30 21 -62 24 -70 2 -8 4
-16 5 -17 2 -2 3 -6 4 -10 7 -36 60 -118 106 -163 74 -72 149 -101 265 -101
64 1 75 2 145 21 45 12 197 87 234 115 19 14 18 16 -18 70 -21 30 -41 55 -45
55 -4 0 -37 -13 -73 -28 -74 -31 -145 -34 -195 -9 -85 44 -157 158 -219 346
-19 58 -37 113 -39 121 -22 82 -137 542 -141 565 -2 17 -7 38 -10 47 -3 9 -7
26 -9 37 -3 12 -7 31 -11 44 -3 12 -7 33 -10 47 -2 14 -7 36 -10 50 -3 14 -8
35 -10 48 -3 13 -16 74 -30 135 -14 62 -27 121 -29 132 -2 11 -4 20 -5 20 -2
0 -4 9 -5 20 -2 11 -17 76 -34 145 -18 69 -34 136 -37 150 -3 14 -16 63 -30
110 -14 47 -27 94 -29 105 -6 27 -22 69 -51 133 -13 29 -24 56 -24 60 0 14
-98 151 -127 178 -103 95 -281 131 -464 93z"/>
</g>
</svg>
